<svg viewBox="0 0 840 840" xmlns="http://www.w3.org/2000/svg"><rect x="40" y="800" height="40" style="fill:hsl(114.87558827480962,100%,50%)" width="40" /><text x="40" y="820">125</text><rect x="80" y="800" height="40" style="fill:hsl(104.85863114129708,100%,50%)" width="40" /><text x="80" y="820">135</text><rect x="120" y="800" height="40" style="fill:hsl(100.05648988418855,100%,50%)" width="40" /><text x="120" y="820">140</text><rect x="160" y="800" height="40" style="fill:hsl(97.32744361582263,100%,50%)" width="40" /><text x="160" y="820">143</text><rect x="200" y="800" height="40" style="fill:hsl(95.53390772596694,100%,50%)" width="40" /><text x="200" y="820">144</text><rect x="240" y="800" height="40" style="fill:hsl(94.20212451539507,100%,50%)" width="40" /><text x="240" y="820">146</text><rect x="280" y="800" height="40" style="fill:hsl(93.1052465319907,100%,50%)" width="40" /><text x="280" y="820">147</text><rect x="320" y="800" height="40" style="fill:hsl(92.11881893315203,100%,50%)" width="40" /><text x="320" y="820">148</text><rect x="360" y="800" height="40" style="fill:hsl(91.16449260888481,100%,50%)" width="40" /><text x="360" y="820">149</text><rect x="400" y="800" height="40" style="fill:hsl(90.18506218719179,100%,50%)" width="40" /><text x="400" y="820">150</text><rect x="440" y="800" height="40" style="fill:hsl(89.13132698824322,100%,50%)" width="40" /><text x="440" y="820">151</text><rect x="480" y="800" height="40" style="fill:hsl(87.95304328117837,100%,50%)" width="40" /><text x="480" y="820">152</text><rect x="520" y="800" height="40" style="fill:hsl(86.58986299885473,100%,50%)" width="40" /><text x="520" y="820">153</text><rect x="560" y="800" height="40" style="fill:hsl(84.9584247406689,100%,50%)" width="40" /><text x="560" y="820">155</text><rect x="600" y="800" height="40" style="fill:hsl(82.92919256926663,100%,50%)" width="40" /><text x="600" y="820">157</text><rect x="640" y="800" height="40" style="fill:hsl(80.27847307718329,100%,50%)" width="40" /><text x="640" y="820">160</text><rect x="680" y="800" height="40" style="fill:hsl(76.57706461418152,100%,50%)" width="40" /><text x="680" y="820">163</text><rect x="720" y="800" height="40" style="fill:hsl(70.90196723501353,100%,50%)" width="40" /><text x="720" y="820">169</text><rect x="760" y="800" height="40" style="fill:hsl(61.00294845750378,100%,50%)" width="40" /><text x="760" y="820">179</text><rect x="800" y="800" height="40" style="fill:hsl(40.622058625952036,100%,50%)" width="40" /><text x="800" y="820">199</text><rect x="40" y="760" height="40" style="fill:hsl(124.64372195794137,100%,50%)" width="40" /><text x="40" y="780">115</text><rect x="80" y="760" height="40" style="fill:hsl(114.50244640619016,100%,50%)" width="40" /><text x="80" y="780">125</text><rect x="120" y="760" height="40" style="fill:hsl(108.03988477963438,100%,50%)" width="40" /><text x="120" y="780">132</text><rect x="160" y="760" height="40" style="fill:hsl(103.71937685313515,100%,50%)" width="40" /><text x="160" y="780">136</text><rect x="200" y="760" height="40" style="fill:hsl(100.60606277265009,100%,50%)" width="40" /><text x="200" y="780">139</text><rect x="240" y="760" height="40" style="fill:hsl(98.16934380362255,100%,50%)" width="40" /><text x="240" y="780">142</text><rect x="280" y="760" height="40" style="fill:hsl(96.10004267941574,100%,50%)" width="40" /><text x="280" y="780">144</text><rect x="320" y="760" height="40" style="fill:hsl(94.20553659173257,100%,50%)" width="40" /><text x="320" y="780">146</text><rect x="360" y="760" height="40" style="fill:hsl(92.35408931519538,100%,50%)" width="40" /><text x="360" y="780">148</text><rect x="400" y="760" height="40" style="fill:hsl(90.44442915163904,100%,50%)" width="40" /><text x="400" y="780">150</text><rect x="440" y="760" height="40" style="fill:hsl(88.38720248460268,100%,50%)" width="40" /><text x="440" y="780">152</text><rect x="480" y="760" height="40" style="fill:hsl(86.09098313761547,100%,50%)" width="40" /><text x="480" y="780">154</text><rect x="520" y="760" height="40" style="fill:hsl(83.44798397357161,100%,50%)" width="40" /><text x="520" y="780">157</text><rect x="560" y="760" height="40" style="fill:hsl(80.31464339455422,100%,50%)" width="40" /><text x="560" y="780">160</text><rect x="600" y="760" height="40" style="fill:hsl(76.47987245921436,100%,50%)" width="40" /><text x="600" y="780">164</text><rect x="640" y="760" height="40" style="fill:hsl(71.60763512528501,100%,50%)" width="40" /><text x="640" y="780">168</text><rect x="680" y="760" height="40" style="fill:hsl(65.12781814452936,100%,50%)" width="40" /><text x="680" y="780">175</text><rect x="720" y="760" height="40" style="fill:hsl(56.02785586836876,100%,50%)" width="40" /><text x="720" y="780">184</text><rect x="760" y="760" height="40" style="fill:hsl(42.487767969049685,100%,50%)" width="40" /><text x="760" y="780">198</text><rect x="800" y="760" height="40" style="fill:hsl(21.485286046304395,100%,50%)" width="40" /><text x="800" y="780">219</text><rect x="40" y="720" height="40" style="fill:hsl(129.19685315076572,100%,50%)" width="40" /><text x="40" y="740">111</text><rect x="80" y="720" height="40" style="fill:hsl(120.46754774588774,100%,50%)" width="40" /><text x="80" y="740">120</text><rect x="120" y="720" height="40" style="fill:hsl(113.88122597502357,100%,50%)" width="40" /><text x="120" y="740">126</text><rect x="160" y="720" height="40" style="fill:hsl(108.90411624443337,100%,50%)" width="40" /><text x="160" y="740">131</text><rect x="200" y="720" height="40" style="fill:hsl(105.00162270787553,100%,50%)" width="40" /><text x="200" y="740">135</text><rect x="240" y="720" height="40" style="fill:hsl(101.7691452470294,100%,50%)" width="40" /><text x="240" y="740">138</text><rect x="280" y="720" height="40" style="fill:hsl(98.92004379031735,100%,50%)" width="40" /><text x="280" y="740">141</text><rect x="320" y="720" height="40" style="fill:hsl(96.24919543916715,100%,50%)" width="40" /><text x="320" y="740">144</text><rect x="360" y="720" height="40" style="fill:hsl(93.60189890852521,100%,50%)" width="40" /><text x="360" y="740">146</text><rect x="400" y="720" height="40" style="fill:hsl(90.85136261956637,100%,50%)" width="40" /><text x="400" y="740">149</text><rect x="440" y="720" height="40" style="fill:hsl(87.882070660913,100%,50%)" width="40" /><text x="440" y="740">152</text><rect x="480" y="720" height="40" style="fill:hsl(84.57570281110907,100%,50%)" width="40" /><text x="480" y="740">155</text><rect x="520" y="720" height="40" style="fill:hsl(80.79644636326174,100%,50%)" width="40" /><text x="520" y="740">159</text><rect x="560" y="720" height="40" style="fill:hsl(76.37229240476188,100%,50%)" width="40" /><text x="560" y="740">164</text><rect x="600" y="720" height="40" style="fill:hsl(71.06801874775135,100%,50%)" width="40" /><text x="600" y="740">169</text><rect x="640" y="720" height="40" style="fill:hsl(64.54437682021285,100%,50%)" width="40" /><text x="640" y="740">175</text><rect x="680" y="720" height="40" style="fill:hsl(56.2987169702821,100%,50%)" width="40" /><text x="680" y="740">184</text><rect x="720" y="720" height="40" style="fill:hsl(45.59387012488247,100%,50%)" width="40" /><text x="720" y="740">194</text><rect x="760" y="720" height="40" style="fill:hsl(31.434981504021636,100%,50%)" width="40" /><text x="760" y="740">209</text><rect x="800" y="720" height="40" style="fill:hsl(12.831317590215775,100%,50%)" width="40" /><text x="800" y="740">227</text><rect x="40" y="680" height="40" style="fill:hsl(131.6761428992337,100%,50%)" width="40" /><text x="40" y="700">108</text><rect x="80" y="680" height="40" style="fill:hsl(124.28966545157142,100%,50%)" width="40" /><text x="80" y="700">116</text><rect x="120" y="680" height="40" style="fill:hsl(118.1133551301388,100%,50%)" width="40" /><text x="120" y="700">122</text><rect x="160" y="680" height="40" style="fill:hsl(113.01423944169926,100%,50%)" width="40" /><text x="160" y="700">127</text><rect x="200" y="680" height="40" style="fill:hsl(108.72716656738925,100%,50%)" width="40" /><text x="200" y="700">131</text><rect x="240" y="680" height="40" style="fill:hsl(104.98557068630191,100%,50%)" width="40" /><text x="240" y="700">135</text><rect x="280" y="680" height="40" style="fill:hsl(101.56179179565717,100%,50%)" width="40" /><text x="280" y="700">138</text><rect x="320" y="680" height="40" style="fill:hsl(98.26930246609354,100%,50%)" width="40" /><text x="320" y="700">142</text><rect x="360" y="680" height="40" style="fill:hsl(94.95294826017201,100%,50%)" width="40" /><text x="360" y="700">145</text><rect x="400" y="680" height="40" style="fill:hsl(91.47705175718815,100%,50%)" width="40" /><text x="400" y="700">149</text><rect x="440" y="680" height="40" style="fill:hsl(87.71401472837394,100%,50%)" width="40" /><text x="440" y="700">152</text><rect x="480" y="680" height="40" style="fill:hsl(83.53331108264604,100%,50%)" width="40" /><text x="480" y="700">156</text><rect x="520" y="680" height="40" style="fill:hsl(78.78980626360442,100%,50%)" width="40" /><text x="520" y="700">161</text><rect x="560" y="680" height="40" style="fill:hsl(73.31006111348032,100%,50%)" width="40" /><text x="560" y="700">167</text><rect x="600" y="680" height="40" style="fill:hsl(66.8755333068165,100%,50%)" width="40" /><text x="600" y="700">173</text><rect x="640" y="680" height="40" style="fill:hsl(59.203136437532976,100%,50%)" width="40" /><text x="640" y="700">181</text><rect x="680" y="680" height="40" style="fill:hsl(49.928802791503756,100%,50%)" width="40" /><text x="680" y="700">190</text><rect x="720" y="680" height="40" style="fill:hsl(38.613926156857275,100%,50%)" width="40" /><text x="720" y="700">201</text><rect x="760" y="680" height="40" style="fill:hsl(24.82697033193847,100%,50%)" width="40" /><text x="760" y="700">215</text><rect x="800" y="680" height="40" style="fill:hsl(8.405002810537212,100%,50%)" width="40" /><text x="800" y="700">232</text><rect x="40" y="640" height="40" style="fill:hsl(133.21805299459749,100%,50%)" width="40" /><text x="40" y="660">107</text><rect x="80" y="640" height="40" style="fill:hsl(126.90161603102538,100%,50%)" width="40" /><text x="80" y="660">113</text><rect x="120" y="640" height="40" style="fill:hsl(121.268289652261,100%,50%)" width="40" /><text x="120" y="660">119</text><rect x="160" y="640" height="40" style="fill:hsl(116.31231982483557,100%,50%)" width="40" /><text x="160" y="660">124</text><rect x="200" y="640" height="40" style="fill:hsl(111.9072334336802,100%,50%)" width="40" /><text x="200" y="660">128</text><rect x="240" y="640" height="40" style="fill:hsl(107.88417913513183,100%,50%)" width="40" /><text x="240" y="660">132</text><rect x="280" y="640" height="40" style="fill:hsl(104.07225023991589,100%,50%)" width="40" /><text x="280" y="660">136</text><rect x="320" y="640" height="40" style="fill:hsl(100.31327436937784,100%,50%)" width="40" /><text x="320" y="660">140</text><rect x="360" y="640" height="40" style="fill:hsl(96.4635399088811,100%,50%)" width="40" /><text x="360" y="660">144</text><rect x="400" y="640" height="40" style="fill:hsl(92.3898814206402,100%,50%)" width="40" /><text x="400" y="660">148</text><rect x="440" y="640" height="40" style="fill:hsl(87.96362541274848,100%,50%)" width="40" /><text x="440" y="660">152</text><rect x="480" y="640" height="40" style="fill:hsl(83.05372052749692,100%,50%)" width="40" /><text x="480" y="660">157</text><rect x="520" y="640" height="40" style="fill:hsl(77.5194064950299,100%,50%)" width="40" /><text x="520" y="660">162</text><rect x="560" y="640" height="40" style="fill:hsl(71.20261247873827,100%,50%)" width="40" /><text x="560" y="660">169</text><rect x="600" y="640" height="40" style="fill:hsl(63.92091692850161,100%,50%)" width="40" /><text x="600" y="660">176</text><rect x="640" y="640" height="40" style="fill:hsl(55.463832831598694,100%,50%)" width="40" /><text x="640" y="660">185</text><rect x="680" y="640" height="40" style="fill:hsl(45.5994316013427,100%,50%)" width="40" /><text x="680" y="660">194</text><rect x="720" y="640" height="40" style="fill:hsl(34.10606137910446,100%,50%)" width="40" /><text x="720" y="660">206</text><rect x="760" y="640" height="40" style="fill:hsl(20.853970856337867,100%,50%)" width="40" /><text x="760" y="660">219</text><rect x="800" y="640" height="40" style="fill:hsl(5.961723319994832,100%,50%)" width="40" /><text x="800" y="660">234</text><rect x="40" y="600" height="40" style="fill:hsl(134.29445304813078,100%,50%)" width="40" /><text x="40" y="620">106</text><rect x="80" y="600" height="40" style="fill:hsl(128.8304560256717,100%,50%)" width="40" /><text x="80" y="620">111</text><rect x="120" y="600" height="40" style="fill:hsl(123.74586762304425,100%,50%)" width="40" /><text x="120" y="620">116</text><rect x="160" y="600" height="40" style="fill:hsl(119.05951677170184,100%,50%)" width="40" /><text x="160" y="620">121</text><rect x="200" y="600" height="40" style="fill:hsl(114.7052682073641,100%,50%)" width="40" /><text x="200" y="620">125</text><rect x="240" y="600" height="40" style="fill:hsl(110.57166218062918,100%,50%)" width="40" /><text x="240" y="620">129</text><rect x="280" y="600" height="40" style="fill:hsl(106.52975565949677,100%,50%)" width="40" /><text x="280" y="620">133</text><rect x="320" y="600" height="40" style="fill:hsl(102.44800486262093,100%,50%)" width="40" /><text x="320" y="620">138</text><rect x="360" y="600" height="40" style="fill:hsl(98.19805558533443,100%,50%)" width="40" /><text x="360" y="620">142</text><rect x="400" y="600" height="40" style="fill:hsl(93.65530860374312,100%,50%)" width="40" /><text x="400" y="620">146</text><rect x="440" y="600" height="40" style="fill:hsl(88.69688497448288,100%,50%)" width="40" /><text x="440" y="620">151</text><rect x="480" y="600" height="40" style="fill:hsl(83.19853911956321,100%,50%)" width="40" /><text x="480" y="620">157</text><rect x="520" y="600" height="40" style="fill:hsl(77.03148671027995,100%,50%)" width="40" /><text x="520" y="620">163</text><rect x="560" y="600" height="40" style="fill:hsl(70.06006537794113,100%,50%)" width="40" /><text x="560" y="620">170</text><rect x="600" y="600" height="40" style="fill:hsl(62.14168909685324,100%,50%)" width="40" /><text x="600" y="620">178</text><rect x="640" y="600" height="40" style="fill:hsl(53.13184635901737,100%,50%)" width="40" /><text x="640" y="620">187</text><rect x="680" y="600" height="40" style="fill:hsl(42.899029403163894,100%,50%)" width="40" /><text x="680" y="620">197</text><rect x="720" y="600" height="40" style="fill:hsl(31.35691690187997,100%,50%)" width="40" /><text x="720" y="620">209</text><rect x="760" y="600" height="40" style="fill:hsl(18.521128394313678,100%,50%)" width="40" /><text x="760" y="620">221</text><rect x="800" y="600" height="40" style="fill:hsl(4.587919613104162,100%,50%)" width="40" /><text x="800" y="620">235</text><rect x="40" y="560" height="40" style="fill:hsl(135.1293031722538,100%,50%)" width="40" /><text x="40" y="580">105</text><rect x="80" y="560" height="40" style="fill:hsl(130.3798874004866,100%,50%)" width="40" /><text x="80" y="580">110</text><rect x="120" y="560" height="40" style="fill:hsl(125.8252080425424,100%,50%)" width="40" /><text x="120" y="580">114</text><rect x="160" y="560" height="40" style="fill:hsl(121.47461143156329,100%,50%)" width="40" /><text x="160" y="580">119</text><rect x="200" y="560" height="40" style="fill:hsl(117.28266044344528,100%,50%)" width="40" /><text x="200" y="580">123</text><rect x="240" y="560" height="40" style="fill:hsl(113.16744572052397,100%,50%)" width="40" /><text x="240" y="580">127</text><rect x="280" y="560" height="40" style="fill:hsl(109.02710535482115,100%,50%)" width="40" /><text x="280" y="580">131</text><rect x="320" y="560" height="40" style="fill:hsl(104.75093383627475,100%,50%)" width="40" /><text x="320" y="580">135</text><rect x="360" y="560" height="40" style="fill:hsl(100.22536896609262,100%,50%)" width="40" /><text x="360" y="580">140</text><rect x="400" y="560" height="40" style="fill:hsl(95.33641243451504,100%,50%)" width="40" /><text x="400" y="580">145</text><rect x="440" y="560" height="40" style="fill:hsl(89.97006676187675,100%,50%)" width="40" /><text x="440" y="580">150</text><rect x="480" y="560" height="40" style="fill:hsl(84.01206426599308,100%,50%)" width="40" /><text x="480" y="580">156</text><rect x="520" y="560" height="40" style="fill:hsl(77.34793584858568,100%,50%)" width="40" /><text x="520" y="580">163</text><rect x="560" y="560" height="40" style="fill:hsl(69.86447322589316,100%,50%)" width="40" /><text x="560" y="580">170</text><rect x="600" y="560" height="40" style="fill:hsl(61.453927721952965,100%,50%)" width="40" /><text x="600" y="580">179</text><rect x="640" y="560" height="40" style="fill:hsl(52.02283410445369,100%,50%)" width="40" /><text x="640" y="580">188</text><rect x="680" y="560" height="40" style="fill:hsl(41.50792275041579,100%,50%)" width="40" /><text x="680" y="580">198</text><rect x="720" y="560" height="40" style="fill:hsl(29.901448430937933,100%,50%)" width="40" /><text x="720" y="580">210</text><rect x="760" y="560" height="40" style="fill:hsl(17.285706205932883,100%,50%)" width="40" /><text x="760" y="580">223</text><rect x="800" y="560" height="40" style="fill:hsl(3.868826738108112,100%,50%)" width="40" /><text x="800" y="580">236</text><rect x="40" y="520" height="40" style="fill:hsl(135.84287224039784,100%,50%)" width="40" /><text x="40" y="540">104</text><rect x="80" y="520" height="40" style="fill:hsl(131.73458236147854,100%,50%)" width="40" /><text x="80" y="540">108</text><rect x="120" y="520" height="40" style="fill:hsl(127.70046571507555,100%,50%)" width="40" /><text x="120" y="540">112</text><rect x="160" y="520" height="40" style="fill:hsl(123.73106046856361,100%,50%)" width="40" /><text x="160" y="540">116</text><rect x="200" y="520" height="40" style="fill:hsl(119.78331641432993,100%,50%)" width="40" /><text x="200" y="540">120</text><rect x="240" y="520" height="40" style="fill:hsl(115.78835490320023,100%,50%)" width="40" /><text x="240" y="540">124</text><rect x="280" y="520" height="40" style="fill:hsl(111.66028620298906,100%,50%)" width="40" /><text x="280" y="540">128</text><rect x="320" y="520" height="40" style="fill:hsl(107.30325616156452,100%,50%)" width="40" /><text x="320" y="540">133</text><rect x="360" y="520" height="40" style="fill:hsl(102.6160740082461,100%,50%)" width="40" /><text x="360" y="540">137</text><rect x="400" y="520" height="40" style="fill:hsl(97.49490540634747,100%,50%)" width="40" /><text x="400" y="540">143</text><rect x="440" y="520" height="40" style="fill:hsl(91.834905372516,100%,50%)" width="40" /><text x="440" y="540">148</text><rect x="480" y="520" height="40" style="fill:hsl(85.53171533394655,100%,50%)" width="40" /><text x="480" y="540">154</text><rect x="520" y="520" height="40" style="fill:hsl(78.48371919217652,100%,50%)" width="40" /><text x="520" y="540">162</text><rect x="560" y="520" height="40" style="fill:hsl(70.59596395509291,100%,50%)" width="40" /><text x="560" y="540">169</text><rect x="600" y="520" height="40" style="fill:hsl(61.78671446061162,100%,50%)" width="40" /><text x="600" y="540">178</text><rect x="640" y="520" height="40" style="fill:hsl(51.99763958642865,100%,50%)" width="40" /><text x="640" y="540">188</text><rect x="680" y="520" height="40" style="fill:hsl(41.20837906310754,100%,50%)" width="40" /><text x="680" y="540">199</text><rect x="720" y="520" height="40" style="fill:hsl(29.455247865522836,100%,50%)" width="40" /><text x="720" y="540">211</text><rect x="760" y="520" height="40" style="fill:hsl(16.85142126037141,100%,50%)" width="40" /><text x="760" y="540">223</text><rect x="800" y="520" height="40" style="fill:hsl(3.6016811333952887,100%,50%)" width="40" /><text x="800" y="540">236</text><rect x="40" y="480" height="40" style="fill:hsl(136.5076034278591,100%,50%)" width="40" /><text x="40" y="500">103</text><rect x="80" y="480" height="40" style="fill:hsl(133.0151040899542,100%,50%)" width="40" /><text x="80" y="500">107</text><rect x="120" y="480" height="40" style="fill:hsl(129.5110119877176,100%,50%)" width="40" /><text x="120" y="500">110</text><rect x="160" y="480" height="40" style="fill:hsl(125.96584831328566,100%,50%)" width="40" /><text x="160" y="500">114</text><rect x="200" y="480" height="40" style="fill:hsl(122.33118984211066,100%,50%)" width="40" /><text x="200" y="500">118</text><rect x="240" y="480" height="40" style="fill:hsl(118.5423712749581,100%,50%)" width="40" /><text x="240" y="500">121</text><rect x="280" y="480" height="40" style="fill:hsl(114.52242839237033,100%,50%)" width="40" /><text x="280" y="500">125</text><rect x="320" y="480" height="40" style="fill:hsl(110.18573059874808,100%,50%)" width="40" /><text x="320" y="500">130</text><rect x="360" y="480" height="40" style="fill:hsl(105.44076549897969,100%,50%)" width="40" /><text x="360" y="500">135</text><rect x="400" y="480" height="40" style="fill:hsl(100.19222981011288,100%,50%)" width="40" /><text x="400" y="500">140</text><rect x="440" y="480" height="40" style="fill:hsl(94.34293398789336,100%,50%)" width="40" /><text x="440" y="500">146</text><rect x="480" y="480" height="40" style="fill:hsl(87.79617250510071,100%,50%)" width="40" /><text x="480" y="500">152</text><rect x="520" y="480" height="40" style="fill:hsl(80.4592616310808,100%,50%)" width="40" /><text x="520" y="500">160</text><rect x="560" y="480" height="40" style="fill:hsl(72.24894894169043,100%,50%)" width="40" /><text x="560" y="500">168</text><rect x="600" y="480" height="40" style="fill:hsl(63.09932657897184,100%,50%)" width="40" /><text x="600" y="500">177</text><rect x="640" y="480" height="40" style="fill:hsl(52.97263071754156,100%,50%)" width="40" /><text x="640" y="500">187</text><rect x="680" y="480" height="40" style="fill:hsl(41.872706050063016,100%,50%)" width="40" /><text x="680" y="500">198</text><rect x="720" y="480" height="40" style="fill:hsl(29.859742707674485,100%,50%)" width="40" /><text x="720" y="500">210</text><rect x="760" y="480" height="40" style="fill:hsl(17.063049836635088,100%,50%)" width="40" /><text x="760" y="500">223</text><rect x="800" y="480" height="40" style="fill:hsl(3.6864765351015194,100%,50%)" width="40" /><text x="800" y="500">236</text><rect x="40" y="440" height="40" style="fill:hsl(137.17243738108434,100%,50%)" width="40" /><text x="40" y="460">103</text><rect x="80" y="440" height="40" style="fill:hsl(134.30721858276152,100%,50%)" width="40" /><text x="80" y="460">106</text><rect x="120" y="440" height="40" style="fill:hsl(131.36262983255517,100%,50%)" width="40" /><text x="120" y="460">109</text><rect x="160" y="440" height="40" style="fill:hsl(128.29013095475085,100%,50%)" width="40" /><text x="160" y="460">112</text><rect x="200" y="440" height="40" style="fill:hsl(125.03322336586908,100%,50%)" width="40" /><text x="200" y="460">115</text><rect x="240" y="440" height="40" style="fill:hsl(121.52751196215114,100%,50%)" width="40" /><text x="240" y="460">118</text><rect x="280" y="440" height="40" style="fill:hsl(117.70132549278604,100%,50%)" width="40" /><text x="280" y="460">122</text><rect x="320" y="440" height="40" style="fill:hsl(113.47647234207783,100%,50%)" width="40" /><text x="320" y="460">127</text><rect x="360" y="440" height="40" style="fill:hsl(108.76902757881163,100%,50%)" width="40" /><text x="360" y="460">131</text><rect x="400" y="440" height="40" style="fill:hsl(103.49031434723108,100%,50%)" width="40" /><text x="400" y="460">137</text><rect x="440" y="440" height="40" style="fill:hsl(97.54842826384379,100%,50%)" width="40" /><text x="440" y="460">142</text><rect x="480" y="440" height="40" style="fill:hsl(90.85077906748216,100%,50%)" width="40" /><text x="480" y="460">149</text><rect x="520" y="440" height="40" style="fill:hsl(83.30820588535562,100%,50%)" width="40" /><text x="520" y="460">157</text><rect x="560" y="440" height="40" style="fill:hsl(74.84124360161616,100%,50%)" width="40" /><text x="560" y="460">165</text><rect x="600" y="440" height="40" style="fill:hsl(65.38901219604367,100%,50%)" width="40" /><text x="600" y="460">175</text><rect x="640" y="440" height="40" style="fill:hsl(54.92085065470275,100%,50%)" width="40" /><text x="640" y="460">185</text><rect x="680" y="440" height="40" style="fill:hsl(43.450071711928615,100%,50%)" width="40" /><text x="680" y="460">197</text><rect x="720" y="440" height="40" style="fill:hsl(31.047967078477257,100%,50%)" width="40" /><text x="720" y="460">209</text><rect x="760" y="440" height="40" style="fill:hsl(17.854558843393022,100%,50%)" width="40" /><text x="760" y="460">222</text><rect x="800" y="440" height="40" style="fill:hsl(4.081175170375673,100%,50%)" width="40" /><text x="800" y="460">236</text><rect x="40" y="400" height="40" style="fill:hsl(137.87492751371676,100%,50%)" width="40" /><text x="40" y="420">102</text><rect x="80" y="400" height="40" style="fill:hsl(135.67870302745249,100%,50%)" width="40" /><text x="80" y="420">104</text><rect x="120" y="400" height="40" style="fill:hsl(133.3421578049908,100%,50%)" width="40" /><text x="120" y="420">107</text><rect x="160" y="400" height="40" style="fill:hsl(130.7988223072937,100%,50%)" width="40" /><text x="160" y="420">109</text><rect x="200" y="400" height="40" style="fill:hsl(127.98406070446354,100%,50%)" width="40" /><text x="200" y="420">112</text><rect x="240" y="400" height="40" style="fill:hsl(124.8331277149912,100%,50%)" width="40" /><text x="240" y="420">115</text><rect x="280" y="400" height="40" style="fill:hsl(121.27888927454475,100%,50%)" width="40" /><text x="280" y="420">119</text><rect x="320" y="400" height="40" style="fill:hsl(117.24980569796534,100%,50%)" width="40" /><text x="320" y="420">123</text><rect x="360" y="400" height="40" style="fill:hsl(112.66855812695786,100%,50%)" width="40" /><text x="360" y="420">127</text><rect x="400" y="400" height="40" style="fill:hsl(107.45157173615578,100%,50%)" width="40" /><text x="400" y="420">133</text><rect x="440" y="400" height="40" style="fill:hsl(101.50968565276855,100%,50%)" width="40" /><text x="440" y="420">138</text><rect x="480" y="400" height="40" style="fill:hsl(94.75030961562848,100%,50%)" width="40" /><text x="480" y="420">145</text><rect x="520" y="400" height="40" style="fill:hsl(87.08153924124326,100%,50%)" width="40" /><text x="520" y="420">153</text><rect x="560" y="400" height="40" style="fill:hsl(78.41880738337505,100%,50%)" width="40" /><text x="560" y="420">162</text><rect x="600" y="400" height="40" style="fill:hsl(68.69462794888383,100%,50%)" width="40" /><text x="600" y="420">171</text><rect x="640" y="400" height="40" style="fill:hsl(57.87168799329723,100%,50%)" width="40" /><text x="640" y="420">182</text><rect x="680" y="400" height="40" style="fill:hsl(45.958763064471384,100%,50%)" width="40" /><text x="680" y="420">194</text><rect x="720" y="400" height="40" style="fill:hsl(33.02749505091282,100%,50%)" width="40" /><text x="720" y="420">207</text><rect x="760" y="400" height="40" style="fill:hsl(19.226043288083986,100%,50%)" width="40" /><text x="760" y="420">221</text><rect x="800" y="400" height="40" style="fill:hsl(4.783665303008036,100%,50%)" width="40" /><text x="800" y="420">235</text><rect x="40" y="360" height="40" style="fill:hsl(138.6485696463301,100%,50%)" width="40" /><text x="40" y="380">101</text><rect x="80" y="360" height="40" style="fill:hsl(137.19050820834093,100%,50%)" width="40" /><text x="80" y="380">103</text><rect x="120" y="360" height="40" style="fill:hsl(135.52847605266183,100%,50%)" width="40" /><text x="120" y="380">104</text><rect x="160" y="360" height="40" style="fill:hsl(133.57893976496962,100%,50%)" width="40" /><text x="160" y="380">106</text><rect x="200" y="360" height="40" style="fill:hsl(131.27106942970013,100%,50%)" width="40" /><text x="200" y="380">109</text><rect x="240" y="360" height="40" style="fill:hsl(128.5420489188055,100%,50%)" width="40" /><text x="240" y="380">111</text><rect x="280" y="360" height="40" style="fill:hsl(125.33129819243659,100%,50%)" width="40" /><text x="280" y="380">115</text><rect x="320" y="360" height="40" style="fill:hsl(121.57530304828092,100%,50%)" width="40" /><text x="320" y="380">118</text><rect x="360" y="360" height="40" style="fill:hsl(117.20382749489883,100%,50%)" width="40" /><text x="360" y="380">123</text><rect x="400" y="360" height="40" style="fill:hsl(112.13772881766577,100%,50%)" width="40" /><text x="400" y="380">128</text><rect x="440" y="360" height="40" style="fill:hsl(106.28843299544633,100%,50%)" width="40" /><text x="440" y="380">134</text><rect x="480" y="360" height="40" style="fill:hsl(99.55923450101997,100%,50%)" width="40" /><text x="480" y="380">140</text><rect x="520" y="360" height="40" style="fill:hsl(91.84883408061376,100%,50%)" width="40" /><text x="520" y="380">148</text><rect x="560" y="360" height="40" style="fill:hsl(83.05781874175679,100%,50%)" width="40" /><text x="560" y="380">157</text><rect x="600" y="360" height="40" style="fill:hsl(73.09900422281936,100%,50%)" width="40" /><text x="600" y="380">167</text><rect x="640" y="360" height="40" style="fill:hsl(61.912510305131065,100%,50%)" width="40" /><text x="640" y="380">178</text><rect x="680" y="360" height="40" style="fill:hsl(49.48579750174693,100%,50%)" width="40" /><text x="680" y="380">191</text><rect x="720" y="360" height="40" style="fill:hsl(35.877206772618734,100%,50%)" width="40" /><text x="720" y="380">204</text><rect x="760" y="360" height="40" style="fill:hsl(21.238453955021953,100%,50%)" width="40" /><text x="760" y="380">219</text><rect x="800" y="360" height="40" style="fill:hsl(5.827442753572512,100%,50%)" width="40" /><text x="800" y="380">234</text><rect x="40" y="320" height="40" style="fill:hsl(139.52884286326275,100%,50%)" width="40" /><text x="40" y="340">100</text><rect x="80" y="320" height="40" style="fill:hsl(138.90628410691932,100%,50%)" width="40" /><text x="80" y="340">101</text><rect x="120" y="320" height="40" style="fill:hsl(138.00229843234584,100%,50%)" width="40" /><text x="120" y="340">102</text><rect x="160" y="320" height="40" style="fill:hsl(136.71739127022295,100%,50%)" width="40" /><text x="160" y="340">103</text><rect x="200" y="320" height="40" style="fill:hsl(134.97922833056188,100%,50%)" width="40" /><text x="200" y="340">105</text><rect x="240" y="320" height="40" style="fill:hsl(132.73270033809416,100%,50%)" width="40" /><text x="240" y="340">107</text><rect x="280" y="320" height="40" style="fill:hsl(129.92895152811502,100%,50%)" width="40" /><text x="280" y="340">110</text><rect x="320" y="320" height="40" style="fill:hsl(126.51628080782297,100%,50%)" width="40" /><text x="320" y="340">113</text><rect x="360" y="320" height="40" style="fill:hsl(122.43371998669072,100%,50%)" width="40" /><text x="360" y="340">118</text><rect x="400" y="320" height="40" style="fill:hsl(117.60708304416217,100%,50%)" width="40" /><text x="400" y="340">122</text><rect x="440" y="320" height="40" style="fill:hsl(111.94708301033074,100%,50%)" width="40" /><text x="440" y="340">128</text><rect x="480" y="320" height="40" style="fill:hsl(105.34936131239135,100%,50%)" width="40" /><text x="480" y="340">135</text><rect x="520" y="320" height="40" style="fill:hsl(97.69674383843508,100%,50%)" width="40" /><text x="520" y="340">142</text><rect x="560" y="320" height="40" style="fill:hsl(88.86462928021899,100%,50%)" width="40" /><text x="560" y="340">151</text><rect x="600" y="320" height="40" style="fill:hsl(78.73105989550558,100%,50%)" width="40" /><text x="600" y="340">161</text><rect x="640" y="320" height="40" style="fill:hsl(67.19355150266063,100%,50%)" width="40" /><text x="640" y="340">173</text><rect x="680" y="320" height="40" style="fill:hsl(54.19470986476696,100%,50%)" width="40" /><text x="680" y="340">186</text><rect x="720" y="320" height="40" style="fill:hsl(39.757080582793265,100%,50%)" width="40" /><text x="720" y="340">200</text><rect x="760" y="320" height="40" style="fill:hsl(24.023123005812295,100%,50%)" width="40" /><text x="760" y="340">216</text><rect x="800" y="320" height="40" style="fill:hsl(7.287651756260232,100%,50%)" width="40" /><text x="800" y="340">233</text><rect x="40" y="280" height="40" style="fill:hsl(140.56051769980172,100%,50%)" width="40" /><text x="40" y="300">99</text><rect x="80" y="280" height="40" style="fill:hsl(140.9034869237277,100%,50%)" width="40" /><text x="80" y="300">99</text><rect x="120" y="280" height="40" style="fill:hsl(140.85704229957935,100%,50%)" width="40" /><text x="120" y="300">99</text><rect x="160" y="280" height="40" style="fill:hsl(140.3090985530144,100%,50%)" width="40" /><text x="160" y="300">100</text><rect x="200" y="280" height="40" style="fill:hsl(139.19575228423025,100%,50%)" width="40" /><text x="200" y="300">101</text><rect x="240" y="280" height="40" style="fill:hsl(137.4805725748942,100%,50%)" width="40" /><text x="240" y="300">103</text><rect x="280" y="280" height="40" style="fill:hsl(135.13552677410632,100%,50%)" width="40" /><text x="280" y="300">105</text><rect x="320" y="280" height="40" style="fill:hsl(132.1271486682054,100%,50%)" width="40" /><text x="320" y="300">108</text><rect x="360" y="280" height="40" style="fill:hsl(128.407688599879,100%,50%)" width="40" /><text x="360" y="300">112</text><rect x="400" y="280" height="40" style="fill:hsl(123.90980036196143,100%,50%)" width="40" /><text x="400" y="300">116</text><rect x="440" y="280" height="40" style="fill:hsl(118.54345468932324,100%,50%)" width="40" /><text x="440" y="300">121</text><rect x="480" y="280" height="40" style="fill:hsl(112.19438389977954,100%,50%)" width="40" /><text x="480" y="300">128</text><rect x="520" y="280" height="40" style="fill:hsl(104.72415068051632,100%,50%)" width="40" /><text x="520" y="300">135</text><rect x="560" y="280" height="40" style="fill:hsl(95.97289464517846,100%,50%)" width="40" /><text x="560" y="300">144</text><rect x="600" y="280" height="40" style="fill:hsl(85.76705457632335,100%,50%)" width="40" /><text x="600" y="300">154</text><rect x="640" y="280" height="40" style="fill:hsl(73.93592594523875,100%,50%)" width="40" /><text x="640" y="300">166</text><rect x="680" y="280" height="40" style="fill:hsl(60.34240987186698,100%,50%)" width="40" /><text x="680" y="300">180</text><rect x="720" y="280" height="40" style="fill:hsl(44.933282687974895,100%,50%)" width="40" /><text x="720" y="300">195</text><rect x="760" y="280" height="40" style="fill:hsl(27.809305729174042,100%,50%)" width="40" /><text x="760" y="300">212</text><rect x="800" y="280" height="40" style="fill:hsl(9.300041265656034,100%,50%)" width="40" /><text x="800" y="300">231</text><rect x="40" y="240" height="40" style="fill:hsl(141.80974101221636,100%,50%)" width="40" /><text x="40" y="260">98</text><rect x="80" y="240" height="40" style="fill:hsl(143.29010358861052,100%,50%)" width="40" /><text x="80" y="260">97</text><rect x="120" y="240" height="40" style="fill:hsl(144.21328528922936,100%,50%)" width="40" /><text x="120" y="260">96</text><rect x="160" y="240" height="40" style="fill:hsl(144.46620835802514,100%,50%)" width="40" /><text x="160" y="260">96</text><rect x="200" y="240" height="40" style="fill:hsl(144.01410967845067,100%,50%)" width="40" /><text x="200" y="260">96</text><rect x="240" y="240" height="40" style="fill:hsl(142.85831090314622,100%,50%)" width="40" /><text x="240" y="260">97</text><rect x="280" y="240" height="40" style="fill:hsl(141.00543432521067,100%,50%)" width="40" /><text x="280" y="260">99</text><rect x="320" y="240" height="40" style="fill:hsl(138.4490984910134,100%,50%)" width="40" /><text x="320" y="260">102</text><rect x="360" y="240" height="40" style="fill:hsl(135.16008538265854,100%,50%)" width="40" /><text x="360" y="260">105</text><rect x="400" y="240" height="40" style="fill:hsl(131.0809751144814,100%,50%)" width="40" /><text x="400" y="260">109</text><rect x="440" y="240" height="40" style="fill:hsl(126.1225514852212,100%,50%)" width="40" /><text x="440" y="260">114</text><rect x="480" y="240" height="40" style="fill:hsl(120.1605689168874,100%,50%)" width="40" /><text x="480" y="260">120</text><rect x="520" y="240" height="40" style="fill:hsl(113.03258033867243,100%,50%)" width="40" /><text x="520" y="260">127</text><rect x="560" y="240" height="40" style="fill:hsl(104.5357440436552,100%,50%)" width="40" /><text x="560" y="260">135</text><rect x="600" y="240" height="40" style="fill:hsl(94.42833781937057,100%,50%)" width="40" /><text x="600" y="260">146</text><rect x="640" y="240" height="40" style="fill:hsl(82.4406878301042,100%,50%)" width="40" /><text x="640" y="260">158</text><rect x="680" y="240" height="40" style="fill:hsl(68.30572098948758,100%,50%)" width="40" /><text x="680" y="260">172</text><rect x="720" y="240" height="40" style="fill:hsl(51.82433456806535,100%,50%)" width="40" /><text x="720" y="260">188</text><rect x="760" y="240" height="40" style="fill:hsl(32.98077595725263,100%,50%)" width="40" /><text x="760" y="260">207</text><rect x="800" y="240" height="40" style="fill:hsl(12.103207577189863,100%,50%)" width="40" /><text x="800" y="260">228</text><rect x="40" y="200" height="40" style="fill:hsl(143.3883427604532,100%,50%)" width="40" /><text x="40" y="220">97</text><rect x="80" y="200" height="40" style="fill:hsl(146.2339011292687,100%,50%)" width="40" /><text x="80" y="220">94</text><rect x="120" y="200" height="40" style="fill:hsl(148.23978691070255,100%,50%)" width="40" /><text x="120" y="220">92</text><rect x="160" y="200" height="40" style="fill:hsl(149.32833991140615,100%,50%)" width="40" /><text x="160" y="220">91</text><rect x="200" y="200" height="40" style="fill:hsl(149.53616716840094,100%,50%)" width="40" /><text x="200" y="220">90</text><rect x="240" y="200" height="40" style="fill:hsl(148.93312703402938,100%,50%)" width="40" /><text x="240" y="220">91</text><rect x="280" y="200" height="40" style="fill:hsl(147.5788011325768,100%,50%)" width="40" /><text x="280" y="220">92</text><rect x="320" y="200" height="40" style="fill:hsl(145.5037255879787,100%,50%)" width="40" /><text x="320" y="220">94</text><rect x="360" y="200" height="40" style="fill:hsl(142.7025793252605,100%,50%)" width="40" /><text x="360" y="220">97</text><rect x="400" y="200" height="40" style="fill:hsl(139.13146322808439,100%,50%)" width="40" /><text x="400" y="220">101</text><rect x="440" y="200" height="40" style="fill:hsl(134.7052072201927,100%,50%)" width="40" /><text x="440" y="220">105</text><rect x="480" y="200" height="40" style="fill:hsl(129.29275994387638,100%,50%)" width="40" /><text x="480" y="220">111</text><rect x="520" y="200" height="40" style="fill:hsl(122.70985771363081,100%,50%)" width="40" /><text x="520" y="220">117</text><rect x="560" y="200" height="40" style="fill:hsl(114.70916337139941,100%,50%)" width="40" /><text x="560" y="220">125</text><rect x="600" y="200" height="40" style="fill:hsl(104.96986482739959,100%,50%)" width="40" /><text x="600" y="220">135</text><rect x="640" y="200" height="40" style="fill:hsl(93.09276656631971,100%,50%)" width="40" /><text x="640" y="220">147</text><rect x="680" y="200" height="40" style="fill:hsl(78.6154516879136,100%,50%)" width="40" /><text x="680" y="220">161</text><rect x="720" y="200" height="40" style="fill:hsl(61.07755863754622,100%,50%)" width="40" /><text x="720" y="220">179</text><rect x="760" y="200" height="40" style="fill:hsl(40.18625595458127,100%,50%)" width="40" /><text x="760" y="220">200</text><rect x="800" y="200" height="40" style="fill:hsl(16.132013085850588,100%,50%)" width="40" /><text x="800" y="220">224</text><rect x="40" y="160" height="40" style="fill:hsl(145.50972890032767,100%,50%)" width="40" /><text x="40" y="180">94</text><rect x="80" y="160" height="40" style="fill:hsl(150.01737125730847,100%,50%)" width="40" /><text x="80" y="180">90</text><rect x="120" y="160" height="40" style="fill:hsl(153.18362131290615,100%,50%)" width="40" /><text x="120" y="180">87</text><rect x="160" y="160" height="40" style="fill:hsl(155.07119720849602,100%,50%)" width="40" /><text x="160" y="180">85</text><rect x="200" y="160" height="40" style="fill:hsl(155.86909204971755,100%,50%)" width="40" /><text x="200" y="180">84</text><rect x="240" y="160" height="40" style="fill:hsl(155.75922893199356,100%,50%)" width="40" /><text x="240" y="180">84</text><rect x="280" y="160" height="40" style="fill:hsl(154.87291758308874,100%,50%)" width="40" /><text x="280" y="180">85</text><rect x="320" y="160" height="40" style="fill:hsl(153.28442340306418,100%,50%)" width="40" /><text x="320" y="180">87</text><rect x="360" y="160" height="40" style="fill:hsl(151.01504310232042,100%,50%)" width="40" /><text x="360" y="180">89</text><rect x="400" y="160" height="40" style="fill:hsl(148.03709125240294,100%,50%)" width="40" /><text x="400" y="180">92</text><rect x="440" y="160" height="40" style="fill:hsl(144.27405422358876,100%,50%)" width="40" /><text x="440" y="180">96</text><rect x="480" y="160" height="40" style="fill:hsl(139.59540592479448,100%,50%)" width="40" /><text x="480" y="180">100</text><rect x="520" y="160" height="40" style="fill:hsl(133.80492720057518,100%,50%)" width="40" /><text x="520" y="180">106</text><rect x="560" y="160" height="40" style="fill:hsl(126.62118690091202,100%,50%)" width="40" /><text x="560" y="180">113</text><rect x="600" y="160" height="40" style="fill:hsl(117.64919155250857,100%,50%)" width="40" /><text x="600" y="180">122</text><rect x="640" y="160" height="40" style="fill:hsl(106.34506191986159,100%,50%)" width="40" /><text x="640" y="180">134</text><rect x="680" y="160" height="40" style="fill:hsl(91.98576055830077,100%,50%)" width="40" /><text x="680" y="180">148</text><rect x="720" y="160" height="40" style="fill:hsl(73.68419233962467,100%,50%)" width="40" /><text x="720" y="180">166</text><rect x="760" y="160" height="40" style="fill:hsl(50.554676137675585,100%,50%)" width="40" /><text x="760" y="180">189</text><rect x="800" y="160" height="40" style="fill:hsl(22.238588811631303,100%,50%)" width="40" /><text x="800" y="180">218</text><rect x="40" y="120" height="40" style="fill:hsl(148.63320158354892,100%,50%)" width="40" /><text x="40" y="140">91</text><rect x="80" y="120" height="40" style="fill:hsl(155.14223368673132,100%,50%)" width="40" /><text x="80" y="140">85</text><rect x="120" y="120" height="40" style="fill:hsl(159.40612987511747,100%,50%)" width="40" /><text x="120" y="140">81</text><rect x="160" y="120" height="40" style="fill:hsl(161.90373555995416,100%,50%)" width="40" /><text x="160" y="140">78</text><rect x="200" y="120" height="40" style="fill:hsl(163.10977488997966,100%,50%)" width="40" /><text x="200" y="140">77</text><rect x="240" y="120" height="40" style="fill:hsl(163.3617790611387,100%,50%)" width="40" /><text x="240" y="140">77</text><rect x="280" y="120" height="40" style="fill:hsl(162.86921686472033,100%,50%)" width="40" /><text x="280" y="140">77</text><rect x="320" y="120" height="40" style="fill:hsl(161.74600733886894,100%,50%)" width="40" /><text x="320" y="140">78</text><rect x="360" y="120" height="40" style="fill:hsl(160.03607842855394,100%,50%)" width="40" /><text x="360" y="140">80</text><rect x="400" y="120" height="40" style="fill:hsl(157.7278044556183,100%,50%)" width="40" /><text x="400" y="140">82</text><rect x="440" y="120" height="40" style="fill:hsl(154.75851249696498,100%,50%)" width="40" /><text x="440" y="140">85</text><rect x="480" y="120" height="40" style="fill:hsl(151.00988233113776,100%,50%)" width="40" /><text x="480" y="140">89</text><rect x="520" y="120" height="40" style="fill:hsl(146.29325826296355,100%,50%)" width="40" /><text x="520" y="140">94</text><rect x="560" y="120" height="40" style="fill:hsl(140.32146547916494,100%,50%)" width="40" /><text x="560" y="140">100</text><rect x="600" y="120" height="40" style="fill:hsl(132.6606525618609,100%,50%)" width="40" /><text x="600" y="140">107</text><rect x="640" y="120" height="40" style="fill:hsl(122.6525290023172,100%,50%)" width="40" /><text x="640" y="140">117</text><rect x="680" y="120" height="40" style="fill:hsl(109.29833628580306,100%,50%)" width="40" /><text x="680" y="140">131</text><rect x="720" y="120" height="40" style="fill:hsl(91.11877402497643,100%,50%)" width="40" /><text x="720" y="140">149</text><rect x="760" y="120" height="40" style="fill:hsl(66.10966744486521,100%,50%)" width="40" /><text x="760" y="140">174</text><rect x="800" y="120" height="40" style="fill:hsl(32.267666022999094,100%,50%)" width="40" /><text x="800" y="140">208</text><rect x="40" y="80" height="40" style="fill:hsl(153.88084374713682,100%,50%)" width="40" /><text x="40" y="100">86</text><rect x="80" y="80" height="40" style="fill:hsl(162.51223203095037,100%,50%)" width="40" /><text x="80" y="100">77</text><rect x="120" y="80" height="40" style="fill:hsl(167.3949289408783,100%,50%)" width="40" /><text x="120" y="100">73</text><rect x="160" y="80" height="40" style="fill:hsl(170.02784026622356,100%,50%)" width="40" /><text x="160" y="100">70</text><rect x="200" y="80" height="40" style="fill:hsl(171.30449288910825,100%,50%)" width="40" /><text x="200" y="100">69</text><rect x="240" y="80" height="40" style="fill:hsl(171.70889555786118,100%,50%)" width="40" /><text x="240" y="100">68</text><rect x="280" y="80" height="40" style="fill:hsl(171.49616347578498,100%,50%)" width="40" /><text x="280" y="100">69</text><rect x="320" y="80" height="40" style="fill:hsl(170.79431065913724,100%,50%)" width="40" /><text x="320" y="100">69</text><rect x="360" y="80" height="40" style="fill:hsl(169.65545881740812,100%,50%)" width="40" /><text x="360" y="100">70</text><rect x="400" y="80" height="40" style="fill:hsl(168.0795356445514,100%,50%)" width="40" /><text x="400" y="100">72</text><rect x="440" y="80" height="40" style="fill:hsl(166.02230897751505,100%,50%)" width="40" /><text x="440" y="100">74</text><rect x="480" y="80" height="40" style="fill:hsl(163.39235263982812,100%,50%)" width="40" /><text x="480" y="100">77</text><rect x="520" y="80" height="40" style="fill:hsl(160.03675804097617,100%,50%)" width="40" /><text x="520" y="100">80</text><rect x="560" y="80" height="40" style="fill:hsl(155.71076419092333,100%,50%)" width="40" /><text x="560" y="100">84</text><rect x="600" y="80" height="40" style="fill:hsl(150.0194242134529,100%,50%)" width="40" /><text x="600" y="100">90</text><rect x="640" y="80" height="40" style="fill:hsl(142.30606524174323,100%,50%)" width="40" /><text x="640" y="100">98</text><rect x="680" y="80" height="40" style="fill:hsl(131.43628155761786,100%,50%)" width="40" /><text x="680" y="100">109</text><rect x="720" y="80" height="40" style="fill:hsl(115.38290002961273,100%,50%)" width="40" /><text x="720" y="100">125</text><rect x="760" y="80" height="40" style="fill:hsl(90.49755359380987,100%,50%)" width="40" /><text x="760" y="100">150</text><rect x="800" y="80" height="40" style="fill:hsl(50.72240783549981,100%,50%)" width="40" /><text x="800" y="100">189</text><rect x="40" y="40" height="40" style="fill:hsl(164.37794137404796,100%,50%)" width="40" /><text x="40" y="60">76</text><rect x="80" y="40" height="40" style="fill:hsl(173.630921749055,100%,50%)" width="40" /><text x="80" y="60">66</text><rect x="120" y="40" height="40" style="fill:hsl(177.63351359122169,100%,50%)" width="40" /><text x="120" y="60">62</text><rect x="160" y="40" height="40" style="fill:hsl(179.50820367495348,100%,50%)" width="40" /><text x="160" y="60">60</text><rect x="200" y="40" height="40" style="fill:hsl(180.37146084236863,100%,50%)" width="40" /><text x="200" y="60">60</text><rect x="240" y="40" height="40" style="fill:hsl(180.67314680541276,100%,50%)" width="40" /><text x="240" y="60">59</text><rect x="280" y="40" height="40" style="fill:hsl(180.6122308214212,100%,50%)" width="40" /><text x="280" y="60">59</text><rect x="320" y="40" height="40" style="fill:hsl(180.27961300448706,100%,50%)" width="40" /><text x="320" y="60">60</text><rect x="360" y="40" height="40" style="fill:hsl(179.71191053738985,100%,50%)" width="40" /><text x="360" y="60">60</text><rect x="400" y="40" height="40" style="fill:hsl(178.91257032766427,100%,50%)" width="40" /><text x="400" y="60">61</text><rect x="440" y="40" height="40" style="fill:hsl(177.85883512871567,100%,50%)" width="40" /><text x="440" y="60">62</text><rect x="480" y="40" height="40" style="fill:hsl(176.5004612096834,100%,50%)" width="40" /><text x="480" y="60">63</text><rect x="520" y="40" height="40" style="fill:hsl(174.75065707018973,100%,50%)" width="40" /><text x="520" y="60">65</text><rect x="560" y="40" height="40" style="fill:hsl(172.46540903009935,100%,50%)" width="40" /><text x="560" y="60">68</text><rect x="600" y="40" height="40" style="fill:hsl(169.4002148592843,100%,50%)" width="40" /><text x="600" y="60">71</text><rect x="640" y="40" height="40" style="fill:hsl(165.11602619358496,100%,50%)" width="40" /><text x="640" y="60">75</text><rect x="680" y="40" height="40" style="fill:hsl(158.7578246733124,100%,50%)" width="40" /><text x="680" y="60">81</text><rect x="720" y="40" height="40" style="fill:hsl(148.47899094204672,100%,50%)" width="40" /><text x="720" y="60">92</text><rect x="760" y="40" height="40" style="fill:hsl(129.77523906526176,100%,50%)" width="40" /><text x="760" y="60">110</text><rect x="800" y="40" height="40" style="fill:hsl(90.12441172519038,100%,50%)" width="40" /><text x="800" y="60">150</text></svg>